<svg xmlns="http://www.w3.org/2000/svg" viewBox="0 0 322.933 74"><defs><style>.a{fill:#ed86b3;}</style></defs><title>logo</title><path class="a" d="M307.806,58.438h0a41.147,41.147,0,0,1,.689,5.854c.065.994.117,1.931.156,2.948a6.916,6.916,0,0,0,.088.781,1.572,1.572,0,0,0,.476.982,1.241,1.241,0,0,0,.721.254,2.364,2.364,0,0,0,.558-.041,2.992,2.992,0,0,0,.932-.358,3.564,3.564,0,0,0,1.651-2.96,5.57,5.57,0,0,0-.843-3.068A12.694,12.694,0,0,0,307.806,58.438Z" transform="translate(-16.033 -4)"/><path class="a" d="M322.473,65.856a2.8,2.8,0,0,0,.515-.769,5.047,5.047,0,0,0,.333-3.187,4.973,4.973,0,0,0-1.729-2.743,9.789,9.789,0,0,0-6.111-1.955h0a8.929,8.929,0,0,1,1.851,2.347A16.05,16.05,0,0,1,318.7,62.11c.324.928.655,1.853,1.092,2.8a3.717,3.717,0,0,0,.442.731,1.589,1.589,0,0,0,.989.617,1.789,1.789,0,0,0,.3.029,1.213,1.213,0,0,0,.417-.077A1.476,1.476,0,0,0,322.473,65.856Z" transform="translate(-16.033 -4)"/><path class="a" d="M300.29,59.2a9.264,9.264,0,0,0-.723-.775c-.038-.038-.07-.081-.11-.118l-.018-.017.007.023.073.258c.03.111.055.2.068.24v0l.024.106h0a19.4,19.4,0,0,1,.078,3.3c-.117,1.1-.327,2.179-.546,3.27-.251,1.056-.5,2.161-.744,3.3a3.125,3.125,0,0,0,.074.948,1.481,1.481,0,0,0,1.356,1.211,3.873,3.873,0,0,0,1.629-.248,2.945,2.945,0,0,0,1.467-1.459,4.863,4.863,0,0,0,.438-1.767,10.742,10.742,0,0,0-.377-3.4A12.355,12.355,0,0,0,300.29,59.2Z" transform="translate(-16.033 -4)"/><path class="a" d="M289.9,63.157a19.232,19.232,0,0,1-2.557,2.947l-.058.055c-.015.014-.029.029-.045.043-.324.3-.662.579-1.017.847l0,0h0l-3.09,1.971c-.515.331-1.026.666-1.513,1.039a1.889,1.889,0,0,0-.638.682,2.736,2.736,0,0,0-.327.853,1.234,1.234,0,0,0,.177.957,1.866,1.866,0,0,0,.823.607,3.168,3.168,0,0,0,2.037.1,9.349,9.349,0,0,0,3.385-1.8,15.891,15.891,0,0,0,4.492-5.73,22.278,22.278,0,0,0,1.873-6.787l.18-1.455-.8,1.244C291.873,60.2,290.911,61.715,289.9,63.157Z" transform="translate(-16.033 -4)"/><path class="a" d="M276.121,52.564a3.238,3.238,0,0,1-.5,2.117,1.843,1.843,0,0,1-1.3.8,1.747,1.747,0,0,1-1.4-.548A2.855,2.855,0,0,1,272.153,53q-.108-1.826-.185-3.762t-.291-3.833a30.889,30.889,0,0,0-.635-3.687,15.915,15.915,0,0,0-1.218-3.395,8.387,8.387,0,0,0-4.365-4.6,6.149,6.149,0,0,0-5.528.656,9.985,9.985,0,0,0-2.857,2.739,23.358,23.358,0,0,0-2.169,3.8,34.839,34.839,0,0,0-1.667,4.454q-.712,2.374-1.3,4.783-.53,2.119-.978,4.162t-1.032,4.089a21.1,21.1,0,0,1-.979,2.921,3.8,3.8,0,0,1-1.773,2.044,2.605,2.605,0,0,1-3.068-.438,11.814,11.814,0,0,1-2.672-3.4,29.054,29.054,0,0,1-2.037-4.6q-.847-2.445-1.217-3.979a43.973,43.973,0,0,1-1.111-9.383q-.053-4.782-.106-9.529c0-.438-.009-.887-.026-1.351a5.325,5.325,0,0,0-.212-1.314,2.258,2.258,0,0,0-.555-.986,1.17,1.17,0,0,0-1.006-.292.826.826,0,0,1-.74-.438,1.839,1.839,0,0,1,0-1.9.824.824,0,0,1,.74-.438,7.906,7.906,0,0,1,2.487.4,3.625,3.625,0,0,1,2.011,1.935,6.671,6.671,0,0,1,.635,2.045,18.963,18.963,0,0,1,.185,2.226q.025,1.132-.027,2.3t-.053,2.19q0,2.484.08,5.038t.37,5.039a36.513,36.513,0,0,0,.9,4.856,20.714,20.714,0,0,0,1.666,4.418c.141.291.335.645.582,1.058A11.609,11.609,0,0,0,244.8,58a4.021,4.021,0,0,0,.9.876,1.289,1.289,0,0,0,.953.256,1.066,1.066,0,0,0,.661-.512,4.784,4.784,0,0,0,.5-1.021q.212-.583.371-1.169t.264-1.021q1-3.724,2.09-7.595a56.146,56.146,0,0,1,2.619-7.375,23.234,23.234,0,0,1,2.328-4.454,17.026,17.026,0,0,1,3.042-3.468,10.474,10.474,0,0,1,3.572-2.045,7.368,7.368,0,0,1,3.915-.183,7.806,7.806,0,0,1,4.443,3.068,22.824,22.824,0,0,1,3.175,5.805,36.218,36.218,0,0,1,1.878,6.936A39.338,39.338,0,0,1,276.121,52.564Z" transform="translate(-16.033 -4)"/><path class="a" d="M41.42,42.238a31.855,31.855,0,0,1-1.662,10.273,36.983,36.983,0,0,1-4.121,8.257,44.669,44.669,0,0,1-5.715,6.9c-2.132,2.1-4.3,4.15-6.43,6.095a1.6,1.6,0,0,0-.4.865,1.65,1.65,0,0,0,.146.924,1.116,1.116,0,0,0,.526.575.69.69,0,0,0,.661-.079c2.73-2.186,5.391-4.495,7.892-6.852a44.694,44.694,0,0,0,6.657-7.935,39.1,39.1,0,0,0,4.6-9.84,41.948,41.948,0,0,0,1.712-12.488V16.387a2.651,2.651,0,0,0-.627-1.9,1.794,1.794,0,0,0-1.3-.643,1.871,1.871,0,0,0-1.309.6,2.631,2.631,0,0,0-.623,1.94Z" transform="translate(-16.033 -4)"/><path class="a" d="M21.017,51.142a1.731,1.731,0,0,0,1.243.6,1.549,1.549,0,0,0,1.2-.678,3.173,3.173,0,0,0,.571-2.04V23.175c0-4.873-1.694-7.243-5.177-7.243H17.011a.759.759,0,0,0-.709.437,2.408,2.408,0,0,0,0,2.212.759.759,0,0,0,.709.437h1.463a1.645,1.645,0,0,1,1.419.906,4,4,0,0,1,.531,2.119V49.2A2.712,2.712,0,0,0,21.017,51.142Z" transform="translate(-16.033 -4)"/><path class="a" d="M109.9,67.861a3.113,3.113,0,0,0-.4-2.164,43.45,43.45,0,0,0-8.3-10.36,32.416,32.416,0,0,0-10.253-6.364.53.53,0,0,1-.26-.326.332.332,0,0,1,.135-.357A45.652,45.652,0,0,0,96.7,37.338a49.856,49.856,0,0,0,2.536-14.052v-.168a3.511,3.511,0,0,0-.518-2.1,1.585,1.585,0,0,0-1.35-.881l-2.424-.087H73a.916.916,0,0,0-.748.493,2.132,2.132,0,0,0,0,2.362A.916.916,0,0,0,73,23.4H94.185a.871.871,0,0,1,.651.235,1.145,1.145,0,0,1,.216.981A37.512,37.512,0,0,1,93.68,32.9a49.5,49.5,0,0,1-2.875,8.25,42.873,42.873,0,0,1-3.99,6.2,55.932,55.932,0,0,1-4.786,5.411,72.291,72.291,0,0,1-6.662,6.016c-2.263,1.794-4.61,3.552-6.975,5.227-1.433.953-2.92,1.961-4.423,3A41.328,41.328,0,0,1,59.4,69.763a1.232,1.232,0,0,0-.621.779,1.946,1.946,0,0,0-.061,1.054,1.31,1.31,0,0,0,.455.745.905.905,0,0,0,.908.018c4.191-2.294,8.415-4.81,12.533-7.468a75.177,75.177,0,0,0,11.777-9.464c.682-.643,1.344-1.3,1.969-1.955s1.234-1.33,1.839-2.038a.462.462,0,0,1,.678-.116,30.97,30.97,0,0,1,9.917,6.9,40.679,40.679,0,0,1,7.633,11c.386.688.839,1.041,1.342,1.041a1.689,1.689,0,0,0,1.332-.639A3.733,3.733,0,0,0,109.9,67.861Z" transform="translate(-16.033 -4)"/><path class="a" d="M100.753,11.113a6.36,6.36,0,0,0-1.986-.807h-.025a.618.618,0,0,0-.107-.009c-.2,0-.4.094-.5.538a.977.977,0,0,0,.3,1.033,46.812,46.812,0,0,1,4.024,4.062,21.962,21.962,0,0,1,3.654,6.264c.576,1.346,1.16,1.182,1.352,1.126.538-.152.851-.838.932-2.038a7.7,7.7,0,0,0-1.249-4.479,15.206,15.206,0,0,0-3.054-3.447A18.988,18.988,0,0,0,100.753,11.113Z" transform="translate(-16.033 -4)"/><path class="a" d="M112.028,16.532c.579,1.346,1.183,1.15,1.381,1.088.559-.178.842-.875.842-2.073a7.337,7.337,0,0,0-.654-3.116,11.1,11.1,0,0,0-1.664-2.576A12.318,12.318,0,0,0,109.7,7.838a25.219,25.219,0,0,0-2.338-1.47,13.236,13.236,0,0,0-1.978-.9,4.358,4.358,0,0,0-1.15-.295c-.186,0-.448.064-.566.616a.934.934,0,0,0,.355,1.026,38.408,38.408,0,0,1,4.155,3.759A21.456,21.456,0,0,1,112.028,16.532Z" transform="translate(-16.033 -4)"/><path class="a" d="M138.138,32.4c0-3.244.474-6.749.712-9.41.142-1.622.284-2.985.284-4.154,0-2.466-.569-3.374-2.467-3.894-.427-.129-.665-.389-.665-.714a2.01,2.01,0,0,1,1.946-1.817c1.282,0,4.414,2.207,4.414,6.3a27.115,27.115,0,0,1-.569,3.958,72,72,0,0,0-1.282,10.58c0,3.309.759,6.1,3.227,7.009,2.373-1.363,3.37-1.557,4.129-1.557a1.883,1.883,0,0,1,2.041,2.011c0,2.467-2.373,3.246-3.749,3.246-.19,0-.428-.065-.617-.065h-.475c-3.939,0-10.156,5-10.156,11.033,0,4.024,2.468,7.463,7.451,7.463a11.463,11.463,0,0,0,6.407-1.947,2.976,2.976,0,0,1,1.471-.519,2.077,2.077,0,0,1,1.946,2.206c0,3.116-5.126,4.609-8.5,4.609-8.164,0-10.774-7.01-10.774-11.1,0-5.387,3.512-11.033,8.5-14.084C138.85,39.991,138.138,36.357,138.138,32.4Z" transform="translate(-16.033 -4)"/><path class="a" d="M210.406,44.681c.576-.558,1.121-1.085,1.121-1.4a10.036,10.036,0,0,0-1.675-2.9c-1.168-1.6-1.99-2.323-2.261-2.323-.233,0-.4,0-1.8,2.02a2.313,2.313,0,0,1-2.164,1.346H183.933a7.211,7.211,0,0,1-2.693-.41c-.151-.079-.391-.215-.69-.385a20.353,20.353,0,0,0-3.163-1.609c-.22,0-.333.193-.333.573,0,.628.179,3.9.241,4.634.19,5.162.24,14.121.24,18.6,0,1.186-.148,5.872-.266,8.918-.083,2.108-.154,3.929-.154,4.319,0,1.636.395,1.935,1.174,1.935.459,0,2.867-.425,3.215-2.441.043-.4.058-5.2.058-8.725,0-4.1,0-4.955,2.011-4.955h20.176c1.691,0,1.829,1.228,1.829,2.712,0,3.045,0,4.862-.2,5.217-.351.658-1.142.716-3.312.716-.26,0-1.029-.035-1.843-.074-.9-.042-1.836-.086-2.179-.086-.283,0-.333.066-.333.253.017.111.454.368.618.465.086.051.162.1.218.133,3.49,1.755,4.45,3.02,4.864,4.489l.061.2c.388,1.263.57,1.776,1.177,1.776.727,0,2.533-1.146,3.9-3.219a10.478,10.478,0,0,0,1.236-5.687c0-1.1-.067-5.5-.138-9.221-.079-4.18-.162-8.5-.162-10.025,0-3.536,0-3.991.827-4.756Zm-6.6,15.411H183.752c-2.128,0-2.128-1.148-2.128-4.555,0-2.142.1-3.353,2.068-3.353h20c1.765,0,1.949,1.021,1.949,3.353C205.638,58.57,205.638,60.092,203.808,60.092Zm-.24-9.776H183.811c-1.972,0-2.187-1-2.187-3.112,0-2.958.169-3.914,2.187-3.914h20c1.83,0,1.83,1.664,1.83,3.273C205.638,49.062,205.638,50.316,203.568,50.316Z" transform="translate(-16.033 -4)"/><path class="a" d="M167.428,33.342c.174.31.262.412.355.412.074,0,.331-.037.558-.069a7.65,7.65,0,0,1,.763-.09,66.225,66.225,0,0,1,7.566-.241h39.512c2.116,0,2.975-.034,2.975-.893,0-1.037-4.242-5.269-4.718-5.3-.39,0-.518.216-1.571,2.177l-.339.63c-.789,1.54-.891,1.6-2.713,1.6H196.547c-2.131,0-2.131-1.512-2.131-3.113,0-3.779,0-4.8,2.009-4.8h12.791a6.615,6.615,0,0,0,2.575-.225.728.728,0,0,0,.46-.669c0-.961-3.975-4.659-4.657-4.659-.218,0-.673,0-1.425,1.753s-1.288,1.933-3.258,1.933h-6.426c-2.009,0-2.009-.619-2.009-5.437,0-2.231,1.371-2.231,2.19-2.231h15.853c2.158,0,3.034-.034,3.034-.893a7.033,7.033,0,0,0-2.071-2.688,8.036,8.036,0,0,0-2.644-1.972c-.215,0-.615,0-1.366,1.753-.814,1.755-1.355,1.933-3.318,1.933h-9.488c-1.8,0-2.07-1.047-2.07-1.67a3.277,3.277,0,0,1,.19-1.094,5.076,5.076,0,0,1,.619-.974,5.512,5.512,0,0,0,.872-1.458c0-.315-.673-.913-2.562-1.645a13.875,13.875,0,0,0-3.415-.932c-.331,0-.331,0-.331.254s.188,1.5.269,2.023l.03.2v3.068c0,2.231-1.358,2.231-2.011,2.231h-7.564c-2.673,0-5.136-.072-8.235-.24h0c-.221,0-.831-.087-1.422-.171-.515-.074-1.049-.15-1.211-.15-.091,0-.093.006-.093.092,0,.052,0,.111.211.392l1.252,1.93c.113.2.23.415.311.415a7.638,7.638,0,0,0,1.274-.233l.047-.007c.13,0,.329-.01.63-.024.95-.044,2.929-.137,6.937-.137h7.986c1.872,0,2.068,1.071,2.068,3.514,0,3.191,0,4.154-1.887,4.154h-4.445c-2.675,0-5.137-.072-8.235-.24h0c-.174,0-.693-.056-1.242-.115-.581-.062-1.181-.126-1.39-.126h-.033v.012a1.451,1.451,0,0,0,.211.392l1.232,2c.185.314.219.35.331.35.079,0,.36-.042.608-.079.343-.051.558-.081.653-.081a69.256,69.256,0,0,1,7.626-.241h4.744c1.889,0,1.889,1.515,1.889,3.433,0,3.256,0,4.475-1.77,4.475H176.97c-2.531,0-4.867-.131-7.341-.27l-.894-.05h0c-.211,0-.767-.059-1.357-.121-.557-.059-1.133-.12-1.336-.12h-.031v.013c0,.119,0,.119.219.483Z" transform="translate(-16.033 -4)"/><path class="a" d="M322.811,71.544c.263.22.47.392.555.477a9.2,9.2,0,0,1,2.085,4.827c.057.681.088,1.06,1.293,1.06,1.757,0,4.075-1.895,5.393-4.408,2.491-4.7,3.13-11.391,4.189-17.276a2.8,2.8,0,0,1,1.811-2.5,2.125,2.125,0,0,0,.83-1.475c0-.7-3.564-4.419-4.237-4.419-.222.017-1.1,1.038-1.389,1.373-.14.162-.249.289-.306.346a2.978,2.978,0,0,1-1.907.524H303.506c-2.051,0-2.31.58-2.31-3.109,0-1.476,0-2.871,1.89-2.871h31.32c3.008,0,3.095-.023,3.095-.815s-3.323-3.613-4-3.613c-.491,0-.585-.895-1.671,1.088l-.062.113c-.824,1.439-1.182,1.439-3.973,1.439H303.086c-2.01,0-2.01,0-2.01-4.391,0-2.151,1.366-2.151,1.949-2.151H321.46c.587,0,1.809,0,2.009,1.328.126.928.3,1.637,1.233,1.637a2.752,2.752,0,0,0,2.494-3.057c0-.821-.047-3.043-.093-5.192-.044-2.077-.085-4.04-.085-4.744,0-8.863.109-8.909,1.154-9.344.574-.193,1.066-.418,1.066-1.152,0-1.286-4.06-3.973-4.5-4.178-.221.015-.5.253-1.172,1.293a2.014,2.014,0,0,1-1.986,1.109H308.069c-.53,0-.989,0-.989-.708s3.653-4.6,4.1-4.856l.112-.075c.619-.411.714-.474.714-1s-.061-.572-1.632-1.3c-.341-.152-3.6-1.474-3.778-1.524-.093,0-.119.032-.119.336a17.762,17.762,0,0,1-.3,3.955c-.82,4.3-1.3,5.167-2.848,5.167-1.94,0-2.19,0-3-.33-.263-.106-.925-.472-1.625-.859a18.889,18.889,0,0,0-2.046-1.054c-.1,0-.208.1-.208.333a16.234,16.234,0,0,0,.362,1.852c.055.242.1.435.117.524.6,3.235.662,8.971.662,23.344,0,.943-.031,2.551-.061,5.117-.03,2.507-.058,3.829-.058,4.651,0,.4-.031,1.544-.06,2.647s-.062,2.242-.062,2.641c0,.762.141,1.775,1.354,1.775a2.51,2.51,0,0,0,2.155-1.212,1.928,1.928,0,0,1,1.988-.951h27.923c.776,0,1.949,0,1.949,2.151a53.843,53.843,0,0,1-2.47,12.879c-.632,1.853-1.224,4.026-4.1,4.026a23.867,23.867,0,0,1-2.488-.376c-.728-.129-1.481-.264-1.656-.264-.153,0-.262.017-.27.225A11.536,11.536,0,0,0,322.811,71.544Zm-19.786-56.3H321.46c2.07,0,2.07,1.006,2.07,3.994,0,3.551,0,4.4-2.07,4.4H303.025c-2.129,0-2.129-1.047-2.129-4.155C300.9,16.313,300.9,15.246,303.025,15.246Zm.12,10.176h18.2c2.189,0,2.189,1.147,2.189,4.554,0,2.524,0,3.915-2.189,3.915H303.206c-2.251,0-2.251-1.371-2.251-5.036C300.955,27.013,300.955,25.422,303.145,25.422Z" transform="translate(-16.033 -4)"/></svg>